<svg xmlns="http://www.w3.org/2000/svg" viewBox="0 0 23 23" width="23" height="23"><path d="M17,1.5A4.505,4.505,0,0,1,21.5,6V17A4.5,4.5,0,0,1,17,21.5H6.01a4.5,4.5,0,0,1-4.5-4.5V6a4.5,4.5,0,0,1,4.5-4.5H17M17,0H6.01a6.014,6.014,0,0,0-6,6V17a6.016,6.016,0,0,0,6,6H17a6.017,6.017,0,0,0,6-6V6a6.016,6.016,0,0,0-6-6Z"></path>
<path d="M11.506,7.078a4.429,4.429,0,1,1-4.428,4.428,4.434,4.434,0,0,1,4.428-4.428m0-1.5a5.928,5.928,0,1,0,5.926,5.928,5.929,5.929,0,0,0-5.926-5.928Z"></path>
<circle cx="1.341" cy="1.341" r="1.341" transform="translate(16.305 4.038)"></circle></svg>
