<svg xmlns="http://www.w3.org/2000/svg" viewBox="0 0 27.002 34"><path d="M13.649.017,13.5,0,0,1.408V26l13.5,8L26.96,26.031,27,26.006V1.408ZM25.073,12.1,13.523,5.32v-.1l-.087.05-.088-.056v.109L1.929,12.086V3.139L13.5,1.93l11.57,1.209V12.1ZM13.433,6.769l11.542,6.7L20.487,16.1l-7.107-4.21L13.365,13.3l5.916,3.5-.862.506-5.04-2.984-.015,1.411L17.2,18l-.784.522L13.38,16.744l-.015,1.409,1.857,1.088-1.8,1.078L2.038,13.586Zm-11.5,8.318L13.364,21.86l.017,1.041-7.96-4.716L5.406,19.6l8,4.782.019,1.073L5.43,20.726l-.013,1.41,8.038,4.81.047.024,8.159-4.859-.011-5.163,3.422-2.031v9.995L13.5,31.766,1.929,24.912Z"></path></svg>
