<svg xmlns="http://www.w3.org/2000/svg" width="30.001" height="16"><g data-name="vk.svg"><g data-name="Group 2"><path data-name="Path 16" d="M23.937 15.999a4 4 0 01-2.075-.642 9.849 9.849 0 01-1.784-1.558c-.438-.447-1.171-1.195-1.447-1.195-.268.076-.481.935-.476 1.593a1.731 1.731 0 01-.468 1.232 2.24 2.24 0 01-1.216.506l-1.926.007a11.238 11.238 0 01-7.428-3.067C3.444 9.469.283 2.93.15 2.654a1.386 1.386 0 01.151-1.505 2.021 2.021 0 011.36-.486L5.743.639l.115.008a2.61 2.61 0 01.957.352 1.859 1.859 0 01.626.741 22.736 22.736 0 001.475 2.727c1.312 2.02 1.9 2.493 2.1 2.6a8.459 8.459 0 00.185-2.913 2.746 2.746 0 00-.252-1.3 1.325 1.325 0 00-.778-.3l-.722-.7c-.1-.668.635-1.245 1.149-1.468a8.424 8.424 0 013.152-.387l.71.005a9.011 9.011 0 012.149.195c1.7.367 1.64 1.755 1.567 3.363-.021.471-.046 1.016-.046 1.646 0 .153 0 .317-.011.486a4.069 4.069 0 00.093 1.324 9.384 9.384 0 002.071-2.519 20.563 20.563 0 001.518-2.848 1.586 1.586 0 011.613-.962l4.274-.024a3.57 3.57 0 01.376-.016c.98 0 1.6.291 1.832.867.269.66.169 1.682-2.354 4.675-.37.439-.7.816-.982 1.144a7.438 7.438 0 00-1.237 1.619 6.772 6.772 0 001.252 1.163 14.464 14.464 0 013.033 3.12 1.636 1.636 0 01.258 1.7 2.276 2.276 0 01-1.877 1l-3.79.048a2.487 2.487 0 01-.262.014zm-5.307-4.914c.9 0 1.682.8 2.511 1.643a8.84 8.84 0 001.5 1.327 2.464 2.464 0 001.4.418l.1-.009 3.8-.048a1.666 1.666 0 00.536-.138 1.19 1.19 0 00-.1-.17 13.184 13.184 0 00-2.686-2.76c-1.184-.978-1.8-1.487-1.865-2.278-.066-.817.493-1.461 1.607-2.744.28-.323.6-.7.967-1.126a10.731 10.731 0 002.058-3 5.217 5.217 0 00-.678-.018l-4.361.028a.53.53 0 00-.249.037 20.839 20.839 0 01-1.644 3.1c-1.895 2.863-2.785 3.249-3.407 3.25a1.128 1.128 0 01-.569-.15c-1-.578-.963-1.862-.934-2.8 0-.151.01-.3.01-.438 0-.656.025-1.225.048-1.715.076-1.706.016-1.718-.379-1.8a7.621 7.621 0 00-1.856-.161l-.693-.005a13.751 13.751 0 00-1.906.1 1.87 1.87 0 01.259.255 3.892 3.892 0 01.602 2.216c.13 1.671.061 3.854-1.018 4.379a1.348 1.348 0 01-.6.139c-.926 0-1.854-.9-3.425-3.317a23.331 23.331 0 01-1.58-2.926.475.475 0 00-.077-.096 1.122 1.122 0 00-.32-.118l-4 .024c-.021 0-.045 0-.07.005.59 1.21 3.428 6.694 6.52 9.564a9.858 9.858 0 006.416 2.669h1.851a1.113 1.113 0 00.269-.1c-.019.018-.01-.054-.01-.1 0-.269.012-2.635 1.578-3.08a1.5 1.5 0 01.395-.056z"/></g></g><path data-name="Color Overlay" d="M21.862 15.358a9.839 9.839 0 01-1.784-1.555c-.438-.447-1.171-1.2-1.447-1.2-.267.076-.481.935-.475 1.593a1.736 1.736 0 01-.468 1.231 2.239 2.239 0 01-1.216.506l-1.926.007a11.239 11.239 0 01-7.429-3.067C3.443 9.464.282 2.925.15 2.649a1.386 1.386 0 01.151-1.5A2.021 2.021 0 011.66.663L5.743.639l.114.008a2.626 2.626 0 01.958.354 1.861 1.861 0 01.625.742 22.721 22.721 0 001.475 2.725c1.311 2.021 1.9 2.492 2.1 2.6a8.457 8.457 0 00.187-2.915 2.749 2.749 0 00-.252-1.3 1.321 1.321 0 00-.778-.3l-.722-.7c-.1-.668.634-1.245 1.148-1.468a8.429 8.429 0 013.146-.388l.71.005a8.992 8.992 0 012.149.194c1.7.366 1.64 1.756 1.567 3.363a34.013 34.013 0 00-.046 1.645c0 .154-.005.317-.012.487a4.074 4.074 0 00.094 1.324 9.415 9.415 0 002.072-2.522 20.525 20.525 0 001.516-2.846 1.587 1.587 0 011.613-.96l4.274-.024a3.7 3.7 0 01.377-.016c.979 0 1.6.292 1.832.867.269.661.169 1.683-2.354 4.676-.37.439-.7.816-.982 1.145a7.445 7.445 0 00-1.237 1.619 6.8 6.8 0 001.252 1.163 14.458 14.458 0 013.033 3.119 1.636 1.636 0 01.258 1.7 2.274 2.274 0 01-1.877 1l-3.789.048a2.417 2.417 0 01-.264.013 4.005 4.005 0 01-2.068-.639zm-.721-2.63a8.867 8.867 0 001.5 1.327 2.459 2.459 0 001.4.418l.1-.009 3.8-.048a1.657 1.657 0 00.536-.138 1.283 1.283 0 00-.1-.17 13.194 13.194 0 00-2.686-2.76c-1.184-.977-1.8-1.487-1.865-2.278-.067-.817.492-1.462 1.607-2.745.28-.322.6-.695.967-1.126a10.743 10.743 0 002.058-3 5.249 5.249 0 00-.679-.019l-4.361.029a.5.5 0 00-.248.037 20.82 20.82 0 01-1.644 3.1c-1.894 2.864-2.785 3.249-3.406 3.25a1.123 1.123 0 01-.569-.15c-1-.577-.963-1.862-.934-2.8.005-.151.01-.3.01-.437 0-.656.025-1.226.049-1.715.076-1.706.015-1.718-.38-1.8a7.593 7.593 0 00-1.856-.161l-.692-.005a13.721 13.721 0 00-1.906.1 1.868 1.868 0 01.259.255 3.887 3.887 0 01.6 2.228c.13 1.671.061 3.854-1.018 4.378a1.341 1.341 0 01-.6.14c-.926 0-1.854-.9-3.424-3.318a23.366 23.366 0 01-1.587-2.93.438.438 0 00-.076-.1 1.1 1.1 0 00-.319-.118l-4 .024h-.07c.591 1.208 3.425 6.693 6.519 9.563a9.854 9.854 0 006.416 2.669h1.85a1.155 1.155 0 00.266-.1c-.015.006-.007-.059-.007-.1 0-.269.013-2.634 1.578-3.08a1.481 1.481 0 01.4-.053c.9 0 1.683.799 2.512 1.643z" fill="#666"/></svg>