<svg xmlns="http://www.w3.org/2000/svg" width="23" height="23"><g transform="translate(-.013)" fill="#231f20"><path data-name="Path 12" d="M17 1.5A4.505 4.505 0 0121.5 6v11a4.5 4.5 0 01-4.5 4.5H6.01a4.5 4.5 0 01-4.5-4.5V6a4.5 4.5 0 014.5-4.5H17M17 0H6.01a6.014 6.014 0 00-6 6v11a6.016 6.016 0 006 6H17a6.017 6.017 0 006-6V6a6.016 6.016 0 00-6-6z"/><path data-name="Path 13" d="M11.506 7.078a4.429 4.429 0 11-4.428 4.428 4.434 4.434 0 014.428-4.428m0-1.5a5.928 5.928 0 105.926 5.928 5.929 5.929 0 00-5.926-5.928z"/><circle data-name="Ellipse 1" cx="1.341" cy="1.341" r="1.341" transform="translate(16.305 4.038)"/></g></svg>