<svg xmlns="http://www.w3.org/2000/svg" xmlns:xlink="http://www.w3.org/1999/xlink"><symbol id="icon-cat-pro" viewBox="0 0 134 56"><path d="M123.1 5.8c1.2-1.9 2.7-3.4 4.5-4.6 1-.7 1.6-.7 2.2.6.8 1.9 1.5 3.9.9 6-.2.8-.1 1.4.4 2.1.6.8 1.1 1.6 1.6 2.3 1.3 1.9 1.8 3.9.9 6.2-.4 1-.4 2-.2 3.1.2 1 .2 2 0 3-.3 1.6-1.1 2.7-2.7 3.2-1.3.3-2.4.9-3.2 2-.2.3-.5.5-.9.5-1.2.2-4.2-2.5-4.2-3.7v-.6c.1-3.6-.1-3.9-3.4-5.4-.7-.3-1.3-.6-1.8-1.2-.6-.8-1.4-.7-2.3-.4-.8.4-1.4.9-1.3 1.9.3 2.4.4 4.8.3 7.3 0 .3.1.6.2.8 3.1 4.5 4.3 9.8 5.8 14.9 1.2 3.9 3.4 6 7.4 6.3.6 0 1.3.2 1.9.3 1.8.3 2.9 1.5 3.4 3.2.7 2.1.3 2.6-1.8 2.6h-6.5c-.9 0-1.6-.2-2.3-.8-1-1-2.2-1.4-3.4-2-1.3-.6-2.6-1.3-3.4-2.6-1.1-1.7-2.6-3.1-4-4.5-2.8-2.9-5.8-5.7-8.4-8.7-1.9-2.2-3.2-4.6-3.2-7.6 0-.9-.2-1.3-1.2-.9-.3.2-.7.3-1 .3-2.8 0-4.2 1.7-5.2 4.2-.9 2.1-2.1 4.1-3.2 6.2-.5 1.1-1 2.6-1 4.2 0 2.4.6 3.2 2.8 4 1.4.5 2.7 1 3.4 2.4.8 1.6.6 2-1.1 2.1h-6.8c-.9 0-1.5-.3-1.9-1.1l-1.8-3c-1-1.7-1.4-3.4-.7-5.4.6-1.7.3-3.6.1-5.3-.4-2.6 0-4.9 1.7-7 .6-.7.6-1-.4-1.2-4.1-.8-8-2.3-11.8-4.1 0 0-.1 0-.1-.1-3.2-1.2-3.8-1-4.7 2.3-.8 2.8-1.6 5.6-2.2 8.5-.7 3.2.1 6.2 1.1 9.2.4 1.2 1.6 1.1 2.5 1.4 2 .6 3.7 1.4 4.5 3.5.7 1.6.6 1.8-1.1 1.8-1.7 0-3.4-.1-5.2 0-1.6.1-2.8-.5-4.2-1.4-4.8-3.2-6.2-8.1-6.6-13.4-.2-3.3-2-5.9-4.1-8.4-.4-.5-.8-.7-1.4-.3-2.1 1.3-4.5 2.1-6.7 3-4.8 1.8-9 4.6-12.2 8.8-1.2 1.5-1.9 3.2-2.2 5.1-.3 1.8.2 2.6 2 3.1 1.9.6 2.7 1.5 2.9 3.4.1.8-.2 1.2-1 1.2h-8.1c-.6 0-1-.4-1.3-.8-1.3-1.6-1.9-3.5-1.9-5.5-.1-3.5.3-6.9.9-10.3.4-2.1 1.4-3.8 3.4-4.8 5.9-2.8 9-8.1 11.8-13.6.6-1.1.1-1.3-.9-1.2-2.9.3-5.4 1.6-7.7 3.2-3 2.1-5.7 4.6-8.3 7.1-2.9 2.7-6.2 4.6-10.3 4.9C3.1 32.5-.3 28.4 0 21.8c.1-2.3.9-4.4 2.4-6.1 1.2-1.3 2.6-2 4.5-1.5 1.5.4 1.9 1.2 1.3 2.7-.3.6-.7 1.1-1 1.7-.4.6-.8 1.3-1 2-1.1 3 .4 5.1 3.5 5.4 3.3.3 6-1.1 8.5-3.1 3-2.4 5.7-5.2 8-8.3 3.7-4.8 8.5-7.3 14.4-8.1 2.3-.3 4.3-1.3 6.5-1.9 4.1-1.2 8.3-1.9 12.7-1.8 2 .1 3.9-.3 5.8-1.1 4.9-2 10-2 15.1-1 4 .8 8 1.8 11.9 2.8 2.2.5 4.7.3 7-.2 4.4-1 8.9-1.9 13.4-2 3-.1 5.9.4 8.6 1.7 2 .9 2 .9 1.5 2.8z"/></symbol><symbol id="icon-cat-slim" viewBox="0 0 70 97"><path d="M54.8 0h-.4c-.7.4-1.1.9-1.4 1.6-.6 1.1-1 2.3-1.3 3.4-.2.8-.7 1.2-1.5 1.3-2.3.4-4 1.7-5.2 3.7-.7 1.3-1.3 2.6-1.8 3.9-1.4 3.7-2.5 7.5-3.8 11.2-.7 1.9-.8 1.9-2.7 1.9-2.3 0-2.1-.4-2.1 2.1 0 .8.2 1.2 1.1 1.2.3 0 .7-.1.8.2.1.3-.2.5-.4.7-1.2 1.3-2.7 2-4.3 2.4-1.9.5-3.8.9-5.7 1.5-4.7 1.6-9.1 3.8-12.6 7.6-2.1 2.3-3.5 5-4.7 7.8-3.8 8.7-5.6 17.8-7 27-.6 4.3-1.1 8.6-1.5 13C.2 92.7 0 94.8 0 97h33.3c.1-.5-.1-.9-.2-1.3-.7-1.8-2.1-2.7-3.8-3.1-.7-.2-.8-.4-.4-.9.7-.9 1.2-2 1.6-3.1 1.6-4.8 2.3-9.8 3.1-14.8.6-3.8 1.5-7.4 3.4-10.8 1.5-2.5 3.3-4.6 5.6-6.4.8-.6.9-.6 1 .4.1.7.1 1.4.2 2.2.3 4.7.3 9.5-.2 14.2-.3 3.7-.5 7.4-.2 11 .4 4.3 1.2 8.4 2.2 12.6h13.3c-.3-2.2-2.1-4-4.2-4.4-1.3-.2-2.5-.1-3.8.2-.6.1-.8 0-.9-.6-.4-5.3-.1-10.6 1-15.8 1.3-6 2.4-12.1 3.1-18.2.3-2.5 1-4.8 2.3-7 1.2-2.1 2.2-4.3 3.4-6.5.9-1.7 1.1-3.4.4-5.2-.3-.7-.5-1.4-.9-2.1-1-2-2-3.9-2.9-5.9-.5-1-.4-1.1.7-1.1 1.6 0 1.6 0 1.7-1.6v-.7c0-.7-.3-1.1-1-1h-1.5c-.7 0-.9-.3-.7-1 .6-2.3 2.8-4.1 5.1-4.4 2.2-.3 4.4 0 6.6.4.6.1 1 0 1.3-.6.4-1 .8-2 1.3-3 .2-.4.2-.8-.1-1.1-3.2-4.2-6.7-8-11.4-10.4-.5-.3-.8-.6-.9-1.1-.3-1.4-.7-2.8-1.3-4.2-.3-.7-.6-1.3-1.4-1.7z"/></symbol><symbol id="icon-close" viewBox="0 0 18 18"><path d="M18 1.3L16.7 0 9 7.7 1.3 0 0 1.3 7.7 9 0 16.7 1.3 18 9 10.3l7.7 7.7 1.3-1.3L10.3 9z"/></symbol><symbol id="icon-fb" viewBox="0 0 10 19"><path d="M7.1 19H2v-8.8H0V5.8h1.9c-.1-2 .2-3.4 1.1-4.4C3.8.5 5 .1 6.5 0H10v4.2H7.2c-.1.2-.2.8-.2 1.6h3v4.4H7.1V19zm-4-1h2.8V9.1h2.9V6.8H5.9v-.5c0-1.4 0-2.6.7-3.1l.1-.1h2.1V1H6.5c-1.2.1-2 .4-2.6 1-.8.8-1 2.3-.8 4.2l.1.6H1.1v2.3h2V18z"/></symbol><symbol id="icon-gift" viewBox="0 0 55.5 60"><path d="M52.3 12.2h-7c.5-.7.8-1.4 1.1-2.2.6-2 .4-4.1-.6-5.9-1-1.8-2.6-3.1-4.6-3.7-2-.6-4.1-.4-5.9.6-3.6 2-6.2 6.1-7.6 9-1.4-2.9-4-7.1-7.6-9-3.8-2-8.5-.6-10.5 3.1-1.4 2.7-1.2 5.8.5 8.1h-7c-1.7 0-3.1 1.4-3.1 3.1v9.4c0 1.7 1.4 3.1 3.1 3.1H4v26.1c0 3.3 2.7 6 6 6h35.5c3.3 0 6-2.7 6-6V27.8h.8c1.7 0 3.1-1.4 3.1-3.1v-9.4c.1-1.7-1.3-3.1-3.1-3.1zM36.5 3c1.3-.7 2.7-.8 4.1-.4 1.3.4 2.4 1.3 3.1 2.6.7 1.3.8 2.7.4 4.1-.4 1.2-1.1 2.2-2.2 2.9H29.4C30.5 9.6 33 5 36.5 3zM11.7 5.2C13.2 2.6 16.4 1.6 19 3c3.5 1.9 6 6.6 7.1 9.1H13.5c-2.3-1.4-3.1-4.5-1.8-6.9zm14.8 22.6v13.7H6.4V27.8h20.1zM6.4 53.9v-10h20.2v13.7H10c-2 0-3.6-1.7-3.6-3.7zm39.1 3.7H28.9V43.9h20.2v10c0 2-1.6 3.7-3.6 3.7zm3.6-16.1H28.9V27.8h20.2v13.7zm4-16.8c0 .4-.3.7-.7.7H3.2c-.4 0-.7-.3-.7-.7v-9.4c0-.4.3-.7.7-.7h49.2c.4 0 .7.3.7.7v9.4z"/></symbol><symbol id="icon-insta"><g transform="translate(-.013)" fill="#231f20"><path data-name="Path 12" d="M17 1.5A4.505 4.505 0 0121.5 6v11a4.5 4.5 0 01-4.5 4.5H6.01a4.5 4.5 0 01-4.5-4.5V6a4.5 4.5 0 014.5-4.5H17M17 0H6.01a6.014 6.014 0 00-6 6v11a6.016 6.016 0 006 6H17a6.017 6.017 0 006-6V6a6.016 6.016 0 00-6-6z"/><path data-name="Path 13" d="M11.506 7.078a4.429 4.429 0 11-4.428 4.428 4.434 4.434 0 014.428-4.428m0-1.5a5.928 5.928 0 105.926 5.928 5.929 5.929 0 00-5.926-5.928z"/><circle data-name="Ellipse 1" cx="1.341" cy="1.341" r="1.341" transform="translate(16.305 4.038)"/></g></symbol><symbol id="icon-mail" viewBox="0 0 17 13"><path d="M15.6 11.6H1.4V5.8H0V13h17V5.8h-1.4v5.8zM0 0v2.3l8.5 7.1L17 2.3V0H0zm15.6 1.6L8.5 7.5 1.4 1.6v-.2h14.2v.2z"/></symbol><symbol id="icon-mobile-menu" viewBox="0 0 24 18"><path d="M0 16h24v2H0zm0-8h24v2H0zm0-8h24v2H0z"/></symbol><symbol id="icon-phone" viewBox="0 0 20 20"><path d="M17.9 9.4H9.4v1.2h8.5l-2.1 2.1.9.9 3.1-3.1c.2-.2.2-.6 0-.9l-3.1-3.1-.9.9 2.1 2zm-9.8 10v-6.2c0-.3-.3-.6-.6-.6H3.1c0 .7.6 1.2 1.2 1.2h2.5v5H3.1c-1 .1-1.8-.7-1.9-1.7v-14c0-1 .8-1.8 1.7-1.8h3.9v5H4.4c-.7 0-1.2.6-1.2 1.2h4.4c.3 0 .6-.3.6-.6V.6C8.1.3 7.8 0 7.5 0H3.1C1.5-.1.1 1.2 0 2.9v13.9c-.1 1.7 1.2 3.1 2.9 3.1h4.6c.3.1.6-.2.6-.5z"/></symbol><symbol id="icon-plus-mobile" viewBox="0 0 30 30"><path fill="#231f20" d="M30 14H16V0h-2v14H0v2h14v14h2V16h14z"/></symbol><symbol id="icon-plus" viewBox="0 0 60 60"><path fill="#231f20" d="M60 29.5H30.5V0h-1v29.5H0v1h29.5V60h1V30.5H60z"/></symbol><symbol id="icon-right-arrow-long" viewBox="0 0 24.2 11"><path fill="#3f4242" d="M17.6 0l6.6 5.5-6.6 5.5V6.6H0V4.4h17.6z"/></symbol><symbol id="icon-right-arrow-verylong" viewBox="0 0 32 11"><path fill="#3f4242" d="M25.4 0L32 5.5 25.4 11V6.6H0V4.4h25.4z"/></symbol><symbol id="icon-tick" viewBox="0 0 21.1 15.5"><path fill="#68b738" d="M20.1 0L7.7 13.3 1 6.1 0 7.2l7.6 8.2.1.1L21 1.2l.1-.1z"/></symbol><symbol id="icon-vk"><g data-name="vk.svg"><g data-name="Group 2"><path data-name="Path 16" d="M23.937 15.999a4 4 0 01-2.075-.642 9.849 9.849 0 01-1.784-1.558c-.438-.447-1.171-1.195-1.447-1.195-.268.076-.481.935-.476 1.593a1.731 1.731 0 01-.468 1.232 2.24 2.24 0 01-1.216.506l-1.926.007a11.238 11.238 0 01-7.428-3.067C3.444 9.469.283 2.93.15 2.654a1.386 1.386 0 01.151-1.505 2.021 2.021 0 011.36-.486L5.743.639l.115.008a2.61 2.61 0 01.957.352 1.859 1.859 0 01.626.741 22.736 22.736 0 001.475 2.727c1.312 2.02 1.9 2.493 2.1 2.6a8.459 8.459 0 00.185-2.913 2.746 2.746 0 00-.252-1.3 1.325 1.325 0 00-.778-.3l-.722-.7c-.1-.668.635-1.245 1.149-1.468a8.424 8.424 0 013.152-.387l.71.005a9.011 9.011 0 012.149.195c1.7.367 1.64 1.755 1.567 3.363-.021.471-.046 1.016-.046 1.646 0 .153 0 .317-.011.486a4.069 4.069 0 00.093 1.324 9.384 9.384 0 002.071-2.519 20.563 20.563 0 001.518-2.848 1.586 1.586 0 011.613-.962l4.274-.024a3.57 3.57 0 01.376-.016c.98 0 1.6.291 1.832.867.269.66.169 1.682-2.354 4.675-.37.439-.7.816-.982 1.144a7.438 7.438 0 00-1.237 1.619 6.772 6.772 0 001.252 1.163 14.464 14.464 0 013.033 3.12 1.636 1.636 0 01.258 1.7 2.276 2.276 0 01-1.877 1l-3.79.048a2.487 2.487 0 01-.262.014zm-5.307-4.914c.9 0 1.682.8 2.511 1.643a8.84 8.84 0 001.5 1.327 2.464 2.464 0 001.4.418l.1-.009 3.8-.048a1.666 1.666 0 00.536-.138 1.19 1.19 0 00-.1-.17 13.184 13.184 0 00-2.686-2.76c-1.184-.978-1.8-1.487-1.865-2.278-.066-.817.493-1.461 1.607-2.744.28-.323.6-.7.967-1.126a10.731 10.731 0 002.058-3 5.217 5.217 0 00-.678-.018l-4.361.028a.53.53 0 00-.249.037 20.839 20.839 0 01-1.644 3.1c-1.895 2.863-2.785 3.249-3.407 3.25a1.128 1.128 0 01-.569-.15c-1-.578-.963-1.862-.934-2.8 0-.151.01-.3.01-.438 0-.656.025-1.225.048-1.715.076-1.706.016-1.718-.379-1.8a7.621 7.621 0 00-1.856-.161l-.693-.005a13.751 13.751 0 00-1.906.1 1.87 1.87 0 01.259.255 3.892 3.892 0 01.602 2.216c.13 1.671.061 3.854-1.018 4.379a1.348 1.348 0 01-.6.139c-.926 0-1.854-.9-3.425-3.317a23.331 23.331 0 01-1.58-2.926.475.475 0 00-.077-.096 1.122 1.122 0 00-.32-.118l-4 .024c-.021 0-.045 0-.07.005.59 1.21 3.428 6.694 6.52 9.564a9.858 9.858 0 006.416 2.669h1.851a1.113 1.113 0 00.269-.1c-.019.018-.01-.054-.01-.1 0-.269.012-2.635 1.578-3.08a1.5 1.5 0 01.395-.056z"/></g></g><path data-name="Color Overlay" d="M21.862 15.358a9.839 9.839 0 01-1.784-1.555c-.438-.447-1.171-1.2-1.447-1.2-.267.076-.481.935-.475 1.593a1.736 1.736 0 01-.468 1.231 2.239 2.239 0 01-1.216.506l-1.926.007a11.239 11.239 0 01-7.429-3.067C3.443 9.464.282 2.925.15 2.649a1.386 1.386 0 01.151-1.5A2.021 2.021 0 011.66.663L5.743.639l.114.008a2.626 2.626 0 01.958.354 1.861 1.861 0 01.625.742 22.721 22.721 0 001.475 2.725c1.311 2.021 1.9 2.492 2.1 2.6a8.457 8.457 0 00.187-2.915 2.749 2.749 0 00-.252-1.3 1.321 1.321 0 00-.778-.3l-.722-.7c-.1-.668.634-1.245 1.148-1.468a8.429 8.429 0 013.146-.388l.71.005a8.992 8.992 0 012.149.194c1.7.366 1.64 1.756 1.567 3.363a34.013 34.013 0 00-.046 1.645c0 .154-.005.317-.012.487a4.074 4.074 0 00.094 1.324 9.415 9.415 0 002.072-2.522 20.525 20.525 0 001.516-2.846 1.587 1.587 0 011.613-.96l4.274-.024a3.7 3.7 0 01.377-.016c.979 0 1.6.292 1.832.867.269.661.169 1.683-2.354 4.676-.37.439-.7.816-.982 1.145a7.445 7.445 0 00-1.237 1.619 6.8 6.8 0 001.252 1.163 14.458 14.458 0 013.033 3.119 1.636 1.636 0 01.258 1.7 2.274 2.274 0 01-1.877 1l-3.789.048a2.417 2.417 0 01-.264.013 4.005 4.005 0 01-2.068-.639zm-.721-2.63a8.867 8.867 0 001.5 1.327 2.459 2.459 0 001.4.418l.1-.009 3.8-.048a1.657 1.657 0 00.536-.138 1.283 1.283 0 00-.1-.17 13.194 13.194 0 00-2.686-2.76c-1.184-.977-1.8-1.487-1.865-2.278-.067-.817.492-1.462 1.607-2.745.28-.322.6-.695.967-1.126a10.743 10.743 0 002.058-3 5.249 5.249 0 00-.679-.019l-4.361.029a.5.5 0 00-.248.037 20.82 20.82 0 01-1.644 3.1c-1.894 2.864-2.785 3.249-3.406 3.25a1.123 1.123 0 01-.569-.15c-1-.577-.963-1.862-.934-2.8.005-.151.01-.3.01-.437 0-.656.025-1.226.049-1.715.076-1.706.015-1.718-.38-1.8a7.593 7.593 0 00-1.856-.161l-.692-.005a13.721 13.721 0 00-1.906.1 1.868 1.868 0 01.259.255 3.887 3.887 0 01.6 2.228c.13 1.671.061 3.854-1.018 4.378a1.341 1.341 0 01-.6.14c-.926 0-1.854-.9-3.424-3.318a23.366 23.366 0 01-1.587-2.93.438.438 0 00-.076-.1 1.1 1.1 0 00-.319-.118l-4 .024h-.07c.591 1.208 3.425 6.693 6.519 9.563a9.854 9.854 0 006.416 2.669h1.85a1.155 1.155 0 00.266-.1c-.015.006-.007-.059-.007-.1 0-.269.013-2.634 1.578-3.08a1.481 1.481 0 01.4-.053c.9 0 1.683.799 2.512 1.643z" fill="#666"/></symbol></svg>